<svg version="1.1" id="Layer_1" xmlns="http://www.w3.org/2000/svg" xmlns:xlink="http://www.w3.org/1999/xlink" x="0px" y="0px"
	 width="100%" viewBox="0 0 1080 528" enable-background="new 0 0 1080 528" xml:space="preserve">
<path fill="#FFFFFF" opacity="1.000000" stroke="none" 
	d="
M650.000000,529.000000 
	C433.333405,529.000000 217.166794,529.000000 1.000145,529.000000 
	C1.000097,353.000122 1.000097,177.000229 1.000048,1.000263 
	C360.999756,1.000175 720.999512,1.000175 1080.999512,1.000088 
	C1080.999634,176.999710 1080.999634,352.999420 1080.999756,528.999573 
	C937.500000,529.000000 794.000000,529.000000 650.000000,529.000000 
M175.711273,285.829987 
	C188.574127,291.884644 201.941269,290.637756 215.367294,288.576843 
	C219.850464,287.888672 224.338135,287.229950 228.823746,286.557800 
	C229.067062,286.908386 229.310379,287.258972 229.553696,287.609558 
	C223.936020,292.317841 221.901215,298.362579 222.140427,305.304047 
	C222.173553,306.265442 221.873672,307.312866 221.469604,308.203186 
	C217.828903,316.225342 215.849976,325.433807 205.701538,328.621307 
	C203.561874,329.293304 200.293289,331.279022 203.255188,334.583801 
	C210.452316,342.614105 217.761963,350.545441 225.148544,358.401703 
	C226.076782,359.388977 227.740128,359.685120 228.972061,360.259155 
	C226.803909,353.147064 224.826385,346.575287 222.794662,340.020294 
	C220.882141,333.849945 222.620438,328.682098 226.657288,323.851685 
	C236.263260,312.357391 245.728302,300.744934 255.211090,289.148193 
	C260.724457,282.405762 259.035858,272.837921 251.125870,270.253723 
	C238.872391,266.250458 227.043198,260.373627 213.731094,260.262665 
	C210.698563,260.237396 207.665634,260.258972 205.694107,260.258972 
	C211.618958,243.404022 223.256500,229.069977 223.661026,210.304153 
	C224.100464,213.472351 225.007492,216.947495 223.926056,219.617172 
	C220.980392,226.888992 225.208145,230.554626 230.029724,234.256042 
	C232.010529,235.776688 233.976303,237.316956 235.945297,238.852982 
	C238.498611,240.844849 241.022797,240.700333 242.927155,238.155396 
	C245.801468,234.314255 248.915375,230.509247 250.974579,226.230331 
	C255.641891,216.531906 259.823059,206.593506 263.976440,196.658417 
	C264.906921,194.432663 265.806702,191.528397 265.130920,189.454544 
	C264.144409,186.427063 262.119934,183.362076 259.662872,181.420273 
	C258.933136,180.843536 255.264572,183.985413 252.367294,185.779648 
	C252.615311,185.863800 251.651901,185.536911 250.159378,185.030487 
	C250.448959,186.267838 250.568695,186.883087 250.737396,187.484589 
	C253.287903,196.577835 254.040192,205.382462 246.444199,212.725723 
	C243.534241,215.538864 240.498795,218.222214 237.263397,221.201492 
	C232.829163,212.876663 228.731842,204.995880 224.418625,197.235077 
	C223.480515,195.547165 221.956924,194.028610 220.374542,192.887466 
	C217.136612,190.552353 218.894180,187.798096 219.507385,185.231201 
	C220.079697,182.835541 220.782700,180.604263 224.307877,180.645538 
	C225.975449,180.665039 229.050217,178.843033 229.125198,177.700363 
	C229.693390,169.042862 229.166733,160.373779 224.411026,152.744980 
	C219.874268,145.467422 209.582764,143.984955 202.357437,149.232498 
	C196.335815,153.605820 195.529373,162.460175 200.515579,169.215988 
	C201.205048,170.150146 201.890930,171.112122 202.402756,172.148041 
	C205.190170,177.789703 201.550598,183.429443 195.315765,183.115814 
	C188.261230,182.760956 182.231430,184.804260 177.468887,190.245331 
	C176.552231,191.292587 175.215088,192.394699 173.922241,192.622665 
	C163.865768,194.395889 156.286926,200.925568 147.937149,205.954254 
	C147.063629,206.480331 146.272095,207.639450 146.034210,208.644852 
	C144.237305,216.239029 141.981705,223.793823 141.036453,231.504013 
	C139.643723,242.864212 139.387924,254.339645 133.234436,264.598114 
	C131.858276,266.892334 131.664215,269.914215 135.168594,271.232452 
	C138.047012,272.315216 140.986862,273.272430 142.997559,269.702606 
	C144.215240,267.540710 145.440048,265.382812 146.702637,263.150665 
	C147.942276,263.465240 149.130447,263.766785 151.469467,264.360352 
	C150.374695,260.485779 149.384384,257.423096 148.667862,254.297684 
	C148.145203,252.017746 147.101120,249.336914 147.806183,247.381729 
	C151.887604,236.063446 156.419342,224.907532 160.520172,214.409592 
	C167.896393,212.448776 174.891510,210.589264 181.835815,208.743256 
	C182.140732,212.615204 182.811508,216.888687 182.750687,221.151733 
	C182.563736,234.257401 180.779938,246.940506 172.983398,258.142639 
	C166.119980,268.003998 166.991760,277.479736 174.519073,286.765472 
	C173.615860,286.484222 172.712631,286.202942 172.163025,286.031769 
	C166.463715,299.167236 160.994049,312.138245 155.158112,324.942322 
	C153.856323,327.798462 151.603729,330.457947 149.202744,332.528168 
	C143.873154,337.123505 138.683075,342.376556 138.494751,349.332275 
	C138.235886,358.892487 133.973465,366.929138 131.073608,375.483368 
	C130.323563,377.695892 127.770065,380.027740 125.512886,380.857758 
	C119.445518,383.088837 118.739487,384.343964 121.435730,390.177002 
	C123.924538,395.561188 126.337799,401.010193 128.291138,406.602936 
	C130.005997,411.512939 133.435776,413.752106 138.195053,414.455994 
	C139.152985,414.597656 140.220383,413.999359 141.237305,413.742249 
	C140.822525,412.786438 140.477264,411.792572 139.979218,410.882324 
	C138.751434,408.638519 136.281555,406.376068 136.386398,404.222107 
	C136.843445,394.831146 137.166153,385.509491 141.422150,376.544403 
	C149.809586,358.876556 163.292664,345.218689 175.558853,330.542847 
	C183.009094,321.628998 190.281174,312.553986 197.298111,303.297272 
	C199.578659,300.288757 200.797623,296.475525 202.042419,293.959564 
	C193.898468,292.481354 186.281952,291.265778 178.767456,289.592041 
	C177.291199,289.263245 176.209229,287.164215 175.711273,285.829987 
M733.452576,230.021210 
	C741.586426,230.233902 745.866211,233.513260 747.791260,241.818100 
	C748.912842,246.657288 749.497864,251.659561 749.887634,256.622742 
	C751.307983,274.713562 755.203674,278.501312 773.471191,279.910614 
	C785.208313,280.816132 796.925964,282.029907 808.625854,283.341400 
	C814.998962,284.055817 815.849060,283.679016 816.703491,277.335571 
	C817.494751,271.461121 818.157837,265.569427 818.921509,259.324371 
	C825.358337,260.177307 831.086975,261.109283 836.852783,261.629181 
	C839.840088,261.898529 840.643921,263.361267 841.021179,266.015839 
	C841.886292,272.103699 842.736694,278.228638 844.259216,284.167725 
	C844.741577,286.049683 847.080505,288.243896 849.007996,288.814301 
	C854.083313,290.316376 859.385437,291.084045 864.622314,292.001099 
	C875.373840,293.883789 875.310852,293.861084 872.895264,283.197968 
	C864.268188,245.116470 855.648010,207.033264 847.169922,168.918488 
	C846.357422,165.265518 844.642822,163.911133 841.060364,163.960968 
	C832.732605,164.076797 824.380981,164.356216 816.080627,163.865540 
	C810.899902,163.559265 809.099609,165.645279 808.168762,170.320694 
	C801.517578,203.727798 794.701294,237.102127 787.889404,270.477020 
	C787.523071,272.271790 786.723083,273.978058 786.124939,275.725525 
	C785.653076,275.772369 785.181274,275.819183 784.709412,275.866028 
	C783.792236,274.054749 782.472595,272.336029 782.030945,270.415436 
	C780.505310,263.781982 779.092834,257.109802 777.990662,250.394363 
	C775.828247,237.218964 772.323242,225.143433 756.476318,221.597961 
	C757.594727,221.021637 758.140442,220.561630 758.749023,220.452820 
	C777.097412,217.171646 780.992310,200.841141 777.185974,185.240829 
	C774.051086,172.392288 763.452209,167.388443 751.753479,166.251068 
	C737.387207,164.854355 722.843384,165.363617 708.389282,164.745255 
	C703.869080,164.551865 702.725525,166.198898 702.740295,170.468277 
	C702.783447,182.946442 702.324097,195.425339 702.234436,207.905182 
	C702.084900,228.725220 702.097656,249.546432 701.965027,270.366638 
	C701.946838,273.219025 703.219482,274.088776 705.879028,274.211090 
	C712.518982,274.516449 719.158813,274.928131 725.779358,275.515228 
	C730.368713,275.922241 731.995789,274.089355 731.908081,269.515808 
	C731.690796,258.192139 731.805237,246.861267 731.869507,235.533768 
	C731.879639,233.752899 732.324158,231.974518 733.452576,230.021210 
M934.248657,250.817490 
	C938.916382,241.041077 943.584106,231.264664 948.251831,221.488266 
	C948.666687,221.559448 949.081482,221.630646 949.496277,221.701843 
	C949.496277,233.613510 949.370667,245.526810 949.527283,257.436432 
	C949.735291,273.248993 950.232910,289.057648 950.452942,304.870148 
	C950.515625,309.374268 952.339417,311.901672 956.780273,313.032196 
	C962.566711,314.505310 968.243286,316.412872 973.960144,318.156281 
	C981.612671,320.489990 982.188477,320.000885 981.975159,311.977570 
	C981.125610,280.033264 980.309204,248.088074 979.509705,216.142487 
	C979.139099,201.335068 978.782471,186.526871 978.536499,171.717072 
	C978.468689,167.631165 977.142029,165.648346 972.611145,165.909485 
	C966.466248,166.263626 960.278137,166.180862 954.123291,165.927643 
	C950.536194,165.780075 948.695129,167.256989 947.347107,170.419998 
	C941.945435,183.094803 936.380920,195.700287 930.849548,208.319550 
	C930.117310,209.990204 929.229309,211.592606 928.256287,213.541351 
	C920.708008,198.544907 913.374451,184.243134 906.338257,169.796539 
	C904.700439,166.433914 902.544128,165.074936 898.988281,165.138657 
	C893.491272,165.237183 887.979309,165.387650 882.496338,165.093201 
	C878.160645,164.860382 876.631836,166.329712 876.752869,170.770981 
	C877.315125,191.402374 877.614502,212.041000 877.996582,232.677246 
	C878.338745,251.153214 878.670593,269.629364 878.995605,288.105682 
	C879.050537,291.230103 879.298950,294.215118 883.123535,295.086060 
	C888.957703,296.414581 894.783630,297.782898 900.635315,299.029510 
	C904.249207,299.799347 905.945923,298.276703 905.791687,294.506470 
	C904.859741,271.737396 903.970764,248.966492 903.092346,226.195236 
	C903.003479,223.890976 903.080383,221.580338 903.080383,219.272659 
	C903.321350,219.266495 903.562317,219.260345 903.803284,219.254181 
	C911.234436,234.303329 918.665588,249.352478 926.096741,264.401642 
	C926.711670,264.360687 927.326599,264.319763 927.941589,264.278809 
	C929.957397,260.029541 931.973206,255.780258 934.248657,250.817490 
M363.487152,213.654236 
	C363.215576,222.467194 362.935455,231.279877 362.674164,240.093140 
	C361.944244,264.709473 361.248657,289.326874 360.469513,313.941620 
	C360.347137,317.806396 361.768494,319.189636 365.556519,317.979462 
	C372.837524,315.653381 380.118713,313.323395 387.441803,311.135590 
	C390.846161,310.118530 392.153778,308.018616 392.212372,304.531647 
	C392.441559,290.890228 393.031372,277.251923 393.057068,263.611664 
	C393.065247,259.273102 394.233765,257.629211 398.669617,256.821045 
	C428.418060,251.401016 443.223816,236.944809 446.501312,209.473587 
	C449.143860,187.324844 440.332031,170.739334 416.854187,167.942856 
	C400.913971,166.044189 384.647369,166.796234 368.524658,166.696945 
	C367.302643,166.689423 365.064026,169.302979 364.988953,170.783905 
	C364.281372,184.742203 363.941528,198.719147 363.487152,213.654236 
M497.132965,164.502319 
	C487.981750,164.611496 478.830170,164.815247 469.679565,164.776260 
	C466.656525,164.763382 465.153198,165.771347 464.594269,168.826981 
	C463.368988,175.525757 461.933197,182.188156 460.478485,188.842468 
	C452.918488,223.423416 445.316559,257.995178 437.753662,292.575470 
	C436.597656,297.861115 437.687378,298.998596 442.946320,297.797577 
	C449.422211,296.318604 455.932648,294.889740 462.249847,292.878876 
	C464.156433,292.271973 466.395691,290.038971 466.883972,288.139832 
	C468.452637,282.038940 469.149872,275.719360 470.471069,269.545715 
	C470.801849,268.000061 471.995148,265.685028 473.162811,265.431641 
	C479.433136,264.070679 485.820526,263.249207 492.612762,262.170746 
	C493.575775,268.491211 494.406494,274.369537 495.380920,280.223999 
	C496.447235,286.630432 496.770691,286.895782 503.031097,286.095306 
	C508.639587,285.378204 514.206970,284.327637 519.821655,283.674561 
	C524.628418,283.115479 525.644348,281.053925 524.547913,276.292847 
	C520.410095,258.324432 516.619751,240.273209 512.916443,222.208450 
	C509.412811,205.117386 506.232056,187.960281 502.779358,170.858444 
	C502.229828,168.136734 502.370728,164.487503 497.132965,164.502319 
M566.603271,163.828384 
	C549.566162,164.572723 537.662903,173.199966 531.106995,188.514694 
	C527.883362,196.045135 525.611694,204.284119 524.629517,212.410370 
	C522.575378,229.407455 523.271912,246.339981 531.171692,262.142181 
	C536.504333,272.809113 545.176758,278.847717 557.070801,279.873077 
	C566.701111,280.703247 576.171875,279.368439 584.603394,274.601532 
	C589.562073,271.798096 594.255493,268.014954 598.031555,263.753845 
	C603.254944,257.859497 601.433594,252.482086 594.170654,249.661392 
	C592.472107,249.001709 590.752197,248.396301 589.036133,247.782608 
	C581.054443,244.928314 581.089478,244.948349 577.270691,252.551132 
	C576.461792,254.161575 575.493347,255.790848 574.243958,257.063446 
	C569.554138,261.840393 562.481567,261.044922 558.944153,255.349319 
	C557.906372,253.678391 557.011169,251.785721 556.604248,249.876678 
	C552.479065,230.524109 552.450134,211.240356 558.479248,192.251083 
	C559.382812,189.405334 561.452271,186.589478 563.714172,184.585861 
	C568.474548,180.369125 574.527100,182.392242 575.986145,188.554398 
	C576.781799,191.914398 576.923523,195.451294 577.128174,198.922073 
	C577.287354,201.622391 578.580688,202.527039 581.012695,201.844925 
	C587.401245,200.052994 593.817810,198.325699 600.089050,196.180389 
	C601.315063,195.761002 602.641052,193.615753 602.724609,192.196106 
	C603.366394,181.293365 595.775269,169.581314 585.211182,166.337708 
	C579.601562,164.615356 573.465149,164.608765 566.603271,163.828384 
M644.500000,164.998947 
	C634.004333,164.943008 623.506165,165.000076 613.014282,164.770691 
	C609.270508,164.688843 607.772461,165.638321 607.737793,169.771500 
	C607.461182,202.723236 606.941040,235.672928 606.500916,268.623322 
	C606.407593,275.607727 607.074341,276.129852 613.698364,275.825043 
	C628.655884,275.136780 643.616455,274.457489 658.583252,274.047699 
	C669.774597,273.741364 669.781555,273.931610 670.667114,262.649384 
	C670.745178,261.654663 670.732788,260.651398 670.841614,259.660797 
	C671.322937,255.281601 669.372253,253.735336 665.034302,253.935760 
	C656.723083,254.319778 648.392761,254.270844 640.074280,254.527328 
	C636.620728,254.633820 634.878845,253.668289 635.095642,249.735138 
	C635.471130,242.924072 635.522034,236.086487 635.447632,229.262863 
	C635.410278,225.841431 636.937378,225.025070 640.024536,225.119614 
	C645.684631,225.292969 651.357300,225.048386 657.017944,225.212769 
	C660.524780,225.314575 662.347778,224.305176 662.055786,220.407013 
	C661.795044,216.927322 661.856995,213.404938 662.044312,209.915771 
	C662.206787,206.889999 661.075806,205.700714 658.022583,205.792908 
	C651.863342,205.978897 645.694702,205.851288 639.535522,206.038315 
	C636.685608,206.124863 635.683350,205.005066 635.799316,202.228119 
	C635.986938,197.736740 636.199097,193.220123 635.922241,188.743759 
	C635.693848,185.050552 637.320923,184.035095 640.581848,184.151932 
	C645.571411,184.330719 650.568115,184.556366 655.556763,184.470444 
	C671.596802,184.194214 669.269653,187.555466 669.524109,169.987381 
	C669.575623,166.428177 668.213074,164.839905 664.494263,164.948288 
	C658.167725,165.132706 651.831848,164.998993 644.500000,164.998947 
M208.069824,98.791229 
	C161.693634,102.425629 128.221603,124.967216 108.770668,167.366821 
	C94.692757,198.054214 99.121208,237.210342 109.170067,252.410828 
	C101.211479,225.853821 102.184219,199.723419 113.261543,174.322861 
	C124.429092,148.715393 142.761230,129.859818 168.197784,118.111359 
	C207.932190,99.759125 257.211212,108.852570 288.352966,140.042633 
	C318.387115,170.123413 334.006714,223.780914 304.824677,276.092529 
	C306.301453,274.985657 307.637238,273.704071 308.646118,272.202789 
	C333.793030,234.782120 333.216614,184.392014 306.603546,147.306641 
	C282.732666,114.042549 249.913452,98.010262 208.069824,98.791229 
M737.144409,347.330231 
	C737.805969,347.752533 738.707031,348.693085 739.091431,348.515503 
	C742.253906,347.054443 745.507324,345.659943 748.368530,343.710175 
	C751.908875,341.297638 754.903870,341.597565 758.383362,343.833466 
	C761.614868,345.910095 765.232910,347.385193 769.628723,349.603516 
	C768.711121,344.227356 767.620544,340.020569 767.417053,335.771332 
	C767.306885,333.470459 768.097168,330.571960 769.558960,328.867035 
	C772.503906,325.432190 776.185669,322.629181 779.563477,319.565491 
	C775.164124,317.841705 771.616516,317.089294 768.039490,316.903748 
	C763.215088,316.653503 760.189270,314.628815 758.527405,309.947906 
	C757.293884,306.473663 755.253479,303.285919 753.243713,299.322113 
	C750.746094,304.282288 748.808350,308.674469 746.343079,312.747406 
	C745.413147,314.283813 743.406128,315.672607 741.640869,316.100677 
	C737.092651,317.203552 732.405334,317.732269 727.142151,318.593719 
	C728.611267,320.239685 729.310852,321.499573 730.380920,322.148163 
	C740.293579,328.156097 740.498779,336.836853 737.144409,347.330231 
M606.791931,327.399719 
	C609.696899,324.785004 612.601868,322.170258 616.508484,318.653900 
	C611.709106,317.924072 608.669922,317.206818 605.602234,317.051117 
	C600.046204,316.769135 595.878967,315.046722 594.068665,309.138580 
	C593.087219,305.935455 591.159485,303.022247 589.323242,299.298279 
	C587.079285,303.688080 584.881714,307.235870 583.417603,311.064117 
	C581.976685,314.831909 579.569092,316.370209 575.715088,316.688934 
	C571.712158,317.020050 567.747803,317.817871 562.458679,318.606628 
	C566.820312,322.753601 570.368591,325.772705 573.434082,329.221069 
	C574.617859,330.552704 575.324524,332.910400 575.173157,334.710205 
	C574.774719,339.451355 573.786621,344.142883 572.895569,349.715759 
	C577.553162,347.284790 581.585815,345.391602 585.393921,343.121796 
	C588.165405,341.469849 590.525269,341.583282 593.240845,343.175415 
	C596.927307,345.336884 600.791748,347.194672 605.473450,349.651642 
	C604.765320,344.802826 604.546143,340.828003 603.534729,337.066132 
	C602.503418,333.229858 602.920654,330.245728 606.791931,327.399719 
M654.972778,328.588318 
	C657.443115,330.321106 657.967590,332.470428 657.255249,335.475006 
	C656.214783,339.864136 655.767212,344.393829 654.934448,349.709503 
	C659.752625,347.192749 663.566345,344.781342 667.700195,343.214478 
	C669.835449,342.405182 672.784851,342.441620 674.933167,343.248871 
	C679.005981,344.779236 682.766785,347.139954 687.557983,349.622467 
	C686.769348,344.617218 686.508240,340.613525 685.441772,336.837280 
	C684.325867,332.886322 685.395142,330.191071 688.412903,327.710938 
	C691.555908,325.127777 694.478760,322.276703 698.485535,318.648376 
	C693.704041,317.922363 690.663574,317.207672 687.594543,317.049988 
	C682.039673,316.764557 677.874390,315.040985 676.064270,309.131409 
	C675.084656,305.933044 673.143188,303.029266 671.306152,299.328827 
	C669.080017,303.684723 666.885193,307.232635 665.419250,311.059723 
	C663.977783,314.822632 661.578125,316.372131 657.719360,316.688843 
	C653.714905,317.017639 649.749084,317.817902 644.361694,318.621521 
	C648.433899,322.430542 651.452026,325.253601 654.972778,328.588318 
M330.192657,116.659180 
	C328.693054,105.132904 317.520538,99.151794 307.716614,104.626846 
	C301.310425,108.204399 298.441193,115.584267 300.719421,122.624184 
	C303.052124,129.832413 309.692902,133.928070 317.488190,132.966187 
	C324.801971,132.063751 329.731934,126.104218 330.192657,116.659180 
M295.446136,204.260086 
	C297.541107,205.600815 306.251984,205.384171 307.967377,203.823013 
	C308.489075,203.348206 308.948273,202.386017 308.837036,201.752213 
	C308.725769,201.118378 307.809753,200.089355 307.341431,200.138474 
	C303.126343,200.580811 298.383667,199.310364 295.446136,204.260086 
M295.857025,229.323990 
	C295.931885,230.344025 295.813141,232.188782 296.110992,232.258682 
	C299.776306,233.118942 303.491455,233.806396 307.226501,234.280624 
	C307.706787,234.341614 308.980377,232.741119 308.821106,232.272278 
	C308.514801,231.370880 307.534637,230.219315 306.676666,230.068909 
	C303.288879,229.475067 299.840149,229.229034 295.857025,229.323990 
M118.134964,204.489426 
	C120.410713,204.847763 122.686905,205.451538 124.961990,205.447418 
	C125.914192,205.445709 126.864067,204.154053 127.815010,203.448898 
	C127.123566,202.648346 126.560402,201.360840 125.716606,201.138550 
	C123.183571,200.471237 120.549652,200.007217 117.937317,199.900879 
	C116.740456,199.852142 115.501976,200.825729 114.282372,201.335709 
	C115.312515,202.314545 116.342667,203.293381 118.134964,204.489426 
M120.340187,229.001678 
	C119.359833,229.145416 118.207138,229.014297 117.438736,229.496063 
	C116.228104,230.255112 115.275848,231.426270 114.214203,232.422943 
	C115.590141,232.955536 116.964943,233.919739 118.342285,233.923386 
	C120.625175,233.929459 122.968834,233.519531 125.167488,232.876556 
	C126.195816,232.575821 126.945290,231.321564 127.821159,230.499496 
	C126.736725,229.767303 125.736504,228.715714 124.542061,228.400803 
	C123.529549,228.133881 122.292572,228.718430 120.340187,229.001678 
M197.372742,119.896484 
	C196.524643,120.203568 194.919739,120.582268 194.941025,120.807076 
	C195.307953,124.684296 195.822250,128.551788 196.490906,132.388885 
	C196.549591,132.725632 198.248734,133.249588 198.592102,132.966446 
	C199.337173,132.352066 200.236984,131.193695 200.121857,130.394943 
	C199.632828,127.002335 198.796219,123.659843 197.372742,119.896484 
M293.378174,172.877197 
	C291.768616,173.692017 289.987183,174.294144 288.615143,175.402908 
	C287.816010,176.048706 287.672760,177.506058 287.234375,178.598251 
	C288.363281,178.893341 289.637085,179.670425 290.591125,179.383698 
	C292.607605,178.777664 294.634888,177.855377 296.318665,176.605927 
	C297.665863,175.606247 298.512115,173.931549 299.580688,172.556427 
	C297.736542,172.552353 295.892426,172.548279 293.378174,172.877197 
M271.996826,157.404572 
	C274.731354,157.235184 281.576111,152.140427 281.747742,149.715973 
	C281.809906,148.837509 280.355896,147.117004 279.493622,147.048950 
	C277.138794,146.863144 271.543518,154.057465 271.996826,157.404572 
M299.338806,260.078674 
	C296.394653,258.341064 293.523407,256.452911 290.456879,254.968018 
	C289.655396,254.579926 288.246674,255.445908 287.116821,255.735931 
	C287.590607,256.824066 287.765015,258.371429 288.595306,258.912781 
	C290.933807,260.437378 293.456177,261.811493 296.093140,262.671173 
	C296.947205,262.949615 298.380341,261.451935 299.338806,260.078674 
M126.474945,171.040894 
	C125.512131,171.676147 124.549309,172.311417 123.586494,172.946686 
	C124.193817,173.840317 124.605652,175.058228 125.446213,175.564972 
	C127.699181,176.923248 130.070358,178.154907 132.533112,179.059906 
	C133.456985,179.399399 134.763214,178.698349 135.895126,178.471695 
	C135.485611,177.360245 135.401627,175.761322 134.605103,175.229446 
	C132.285919,173.680862 129.681656,172.559235 126.474945,171.040894 
M223.921326,125.308853 
	C223.637466,126.940079 223.059647,128.592789 223.176727,130.194702 
	C223.250412,131.202942 224.365158,132.135101 225.012878,133.101379 
	C225.867630,132.493713 227.282562,132.026932 227.477188,131.253220 
	C228.200424,128.378036 228.671219,125.413223 228.896362,122.456146 
	C228.957306,121.655495 227.928528,120.211174 227.200851,120.066994 
	C226.455536,119.919319 225.219193,120.824448 224.655273,121.600975 
	C224.126114,122.329666 224.194962,123.492607 223.921326,125.308853 
M254.745392,129.145920 
	C252.889572,132.229919 250.914658,135.252731 249.273727,138.447113 
	C248.926086,139.123840 249.798569,140.427353 250.108902,141.442062 
	C251.204666,141.029846 252.779633,140.936432 253.305939,140.145355 
	C254.858749,137.811310 256.263611,135.290878 257.150970,132.650055 
	C257.459167,131.732803 256.083679,130.249786 254.745392,129.145920 
M149.806030,157.611618 
	C150.395676,156.326645 151.832062,154.388702 151.430557,153.868027 
	C149.544312,151.421951 147.249054,149.251053 144.870941,147.254501 
	C144.317093,146.789536 142.472946,147.030212 141.948502,147.606689 
	C141.470703,148.131912 141.577682,149.917511 142.121704,150.516098 
	C144.315811,152.930252 146.778839,155.100006 149.806030,157.611618 
M174.114014,140.091690 
	C172.796005,136.919495 171.629333,133.669083 170.057343,130.628174 
	C169.646194,129.832825 167.975235,129.688736 166.882828,129.245560 
	C166.660049,130.435043 165.949570,131.805099 166.310013,132.778641 
	C167.227142,135.255661 168.387375,137.729599 169.945755,139.838669 
	C170.552994,140.660492 172.488693,140.500717 174.114014,140.091690 
z"/>
<path fill="#020202" opacity="1.000000" stroke="none" 
	d="
M733.010254,230.108093 
	C732.324158,231.974518 731.879639,233.752899 731.869507,235.533768 
	C731.805237,246.861267 731.690796,258.192139 731.908081,269.515808 
	C731.995789,274.089355 730.368713,275.922241 725.779358,275.515228 
	C719.158813,274.928131 712.518982,274.516449 705.879028,274.211090 
	C703.219482,274.088776 701.946838,273.219025 701.965027,270.366638 
	C702.097656,249.546432 702.084900,228.725220 702.234436,207.905182 
	C702.324097,195.425339 702.783447,182.946442 702.740295,170.468277 
	C702.725525,166.198898 703.869080,164.551865 708.389282,164.745255 
	C722.843384,165.363617 737.387207,164.854355 751.753479,166.251068 
	C763.452209,167.388443 774.051086,172.392288 777.185974,185.240829 
	C780.992310,200.841141 777.097412,217.171646 758.749023,220.452820 
	C758.140442,220.561630 757.594727,221.021637 756.476318,221.597961 
	C772.323242,225.143433 775.828247,237.218964 777.990662,250.394363 
	C779.092834,257.109802 780.505310,263.781982 782.030945,270.415436 
	C782.472595,272.336029 783.792236,274.054749 784.709412,275.866028 
	C785.181274,275.819183 785.653076,275.772369 786.124939,275.725525 
	C786.723083,273.978058 787.523071,272.271790 787.889404,270.477020 
	C794.701294,237.102127 801.517578,203.727798 808.168762,170.320694 
	C809.099609,165.645279 810.899902,163.559265 816.080627,163.865540 
	C824.380981,164.356216 832.732605,164.076797 841.060364,163.960968 
	C844.642822,163.911133 846.357422,165.265518 847.169922,168.918488 
	C855.648010,207.033264 864.268188,245.116470 872.895264,283.197968 
	C875.310852,293.861084 875.373840,293.883789 864.622314,292.001099 
	C859.385437,291.084045 854.083313,290.316376 849.007996,288.814301 
	C847.080505,288.243896 844.741577,286.049683 844.259216,284.167725 
	C842.736694,278.228638 841.886292,272.103699 841.021179,266.015839 
	C840.643921,263.361267 839.840088,261.898529 836.852783,261.629181 
	C831.086975,261.109283 825.358337,260.177307 818.921509,259.324371 
	C818.157837,265.569427 817.494751,271.461121 816.703491,277.335571 
	C815.849060,283.679016 814.998962,284.055817 808.625854,283.341400 
	C796.925964,282.029907 785.208313,280.816132 773.471191,279.910614 
	C755.203674,278.501312 751.307983,274.713562 749.887634,256.622742 
	C749.497864,251.659561 748.912842,246.657288 747.791260,241.818100 
	C745.866211,233.513260 741.586426,230.233902 733.010254,230.108093 
M732.032776,212.219284 
	C737.166199,214.341599 741.733154,213.196716 745.597534,209.482559 
	C749.636475,205.600662 750.666382,193.933197 747.719055,188.127319 
	C745.399780,183.558411 739.831116,181.471130 731.879456,182.511246 
	C731.879456,192.036240 731.879456,201.655426 732.032776,212.219284 
M822.437927,232.798096 
	C822.319153,234.694077 822.200378,236.590057 822.070923,238.656464 
	C827.203369,239.312317 831.693542,239.886093 836.696899,240.525436 
	C834.006836,223.800629 831.457520,207.951004 828.908264,192.101379 
	C828.596924,192.098724 828.285645,192.096085 827.974304,192.093430 
	C826.194153,205.373230 824.413940,218.653030 822.437927,232.798096 
z"/>
<path fill="#020202" opacity="1.000000" stroke="none" 
	d="
M934.118835,251.174225 
	C931.973206,255.780258 929.957397,260.029541 927.941589,264.278809 
	C927.326599,264.319763 926.711670,264.360687 926.096741,264.401642 
	C918.665588,249.352478 911.234436,234.303329 903.803284,219.254181 
	C903.562317,219.260345 903.321350,219.266495 903.080383,219.272659 
	C903.080383,221.580338 903.003479,223.890976 903.092346,226.195236 
	C903.970764,248.966492 904.859741,271.737396 905.791687,294.506470 
	C905.945923,298.276703 904.249207,299.799347 900.635315,299.029510 
	C894.783630,297.782898 888.957703,296.414581 883.123535,295.086060 
	C879.298950,294.215118 879.050537,291.230103 878.995605,288.105682 
	C878.670593,269.629364 878.338745,251.153214 877.996582,232.677246 
	C877.614502,212.041000 877.315125,191.402374 876.752869,170.770981 
	C876.631836,166.329712 878.160645,164.860382 882.496338,165.093201 
	C887.979309,165.387650 893.491272,165.237183 898.988281,165.138657 
	C902.544128,165.074936 904.700439,166.433914 906.338257,169.796539 
	C913.374451,184.243134 920.708008,198.544907 928.256287,213.541351 
	C929.229309,211.592606 930.117310,209.990204 930.849548,208.319550 
	C936.380920,195.700287 941.945435,183.094803 947.347107,170.419998 
	C948.695129,167.256989 950.536194,165.780075 954.123291,165.927643 
	C960.278137,166.180862 966.466248,166.263626 972.611145,165.909485 
	C977.142029,165.648346 978.468689,167.631165 978.536499,171.717072 
	C978.782471,186.526871 979.139099,201.335068 979.509705,216.142487 
	C980.309204,248.088074 981.125610,280.033264 981.975159,311.977570 
	C982.188477,320.000885 981.612671,320.489990 973.960144,318.156281 
	C968.243286,316.412872 962.566711,314.505310 956.780273,313.032196 
	C952.339417,311.901672 950.515625,309.374268 950.452942,304.870148 
	C950.232910,289.057648 949.735291,273.248993 949.527283,257.436432 
	C949.370667,245.526810 949.496277,233.613510 949.496277,221.701843 
	C949.081482,221.630646 948.666687,221.559448 948.251831,221.488266 
	C943.584106,231.264664 938.916382,241.041077 934.118835,251.174225 
z"/>
<path fill="#353535" opacity="1.000000" stroke="none" 
	d="
M175.006348,285.957245 
	C166.991760,277.479736 166.119980,268.003998 172.983398,258.142639 
	C180.779938,246.940506 182.563736,234.257401 182.750687,221.151733 
	C182.811508,216.888687 182.140732,212.615204 181.835815,208.743256 
	C174.891510,210.589264 167.896393,212.448776 160.520172,214.409592 
	C156.419342,224.907532 151.887604,236.063446 147.806183,247.381729 
	C147.101120,249.336914 148.145203,252.017746 148.667862,254.297684 
	C149.384384,257.423096 150.374695,260.485779 151.469467,264.360352 
	C149.130447,263.766785 147.942276,263.465240 146.702637,263.150665 
	C145.440048,265.382812 144.215240,267.540710 142.997559,269.702606 
	C140.986862,273.272430 138.047012,272.315216 135.168594,271.232452 
	C131.664215,269.914215 131.858276,266.892334 133.234436,264.598114 
	C139.387924,254.339645 139.643723,242.864212 141.036453,231.504013 
	C141.981705,223.793823 144.237305,216.239029 146.034210,208.644852 
	C146.272095,207.639450 147.063629,206.480331 147.937149,205.954254 
	C156.286926,200.925568 163.865768,194.395889 173.922241,192.622665 
	C175.215088,192.394699 176.552231,191.292587 177.468887,190.245331 
	C182.231430,184.804260 188.261230,182.760956 195.315765,183.115814 
	C201.550598,183.429443 205.190170,177.789703 202.402756,172.148041 
	C201.890930,171.112122 201.205048,170.150146 200.515579,169.215988 
	C195.529373,162.460175 196.335815,153.605820 202.357437,149.232498 
	C209.582764,143.984955 219.874268,145.467422 224.411026,152.744980 
	C229.166733,160.373779 229.693390,169.042862 229.125198,177.700363 
	C229.050217,178.843033 225.975449,180.665039 224.307877,180.645538 
	C220.782700,180.604263 220.079697,182.835541 219.507385,185.231201 
	C218.894180,187.798096 217.136612,190.552353 220.374542,192.887466 
	C221.956924,194.028610 223.480515,195.547165 224.418625,197.235077 
	C228.731842,204.995880 232.829163,212.876663 237.263397,221.201492 
	C240.498795,218.222214 243.534241,215.538864 246.444199,212.725723 
	C254.040192,205.382462 253.287903,196.577835 250.737396,187.484589 
	C250.568695,186.883087 250.448959,186.267838 250.159378,185.030487 
	C251.651901,185.536911 252.615311,185.863800 252.367294,185.779648 
	C255.264572,183.985413 258.933136,180.843536 259.662872,181.420273 
	C262.119934,183.362076 264.144409,186.427063 265.130920,189.454544 
	C265.806702,191.528397 264.906921,194.432663 263.976440,196.658417 
	C259.823059,206.593506 255.641891,216.531906 250.974579,226.230331 
	C248.915375,230.509247 245.801468,234.314255 242.927155,238.155396 
	C241.022797,240.700333 238.498611,240.844849 235.945297,238.852982 
	C233.976303,237.316956 232.010529,235.776688 230.029724,234.256042 
	C225.208145,230.554626 220.980392,226.888992 223.926056,219.617172 
	C225.007492,216.947495 224.100464,213.472351 223.661026,210.304153 
	C223.256500,229.069977 211.618958,243.404022 205.694107,260.258972 
	C207.665634,260.258972 210.698563,260.237396 213.731094,260.262665 
	C227.043198,260.373627 238.872391,266.250458 251.125870,270.253723 
	C259.035858,272.837921 260.724457,282.405762 255.211090,289.148193 
	C245.728302,300.744934 236.263260,312.357391 226.657288,323.851685 
	C222.620438,328.682098 220.882141,333.849945 222.794662,340.020294 
	C224.826385,346.575287 226.803909,353.147064 228.972061,360.259155 
	C227.740128,359.685120 226.076782,359.388977 225.148544,358.401703 
	C217.761963,350.545441 210.452316,342.614105 203.255188,334.583801 
	C200.293289,331.279022 203.561874,329.293304 205.701538,328.621307 
	C215.849976,325.433807 217.828903,316.225342 221.469604,308.203186 
	C221.873672,307.312866 222.173553,306.265442 222.140427,305.304047 
	C221.901215,298.362579 223.936020,292.317841 229.553696,287.609558 
	C229.310379,287.258972 229.067062,286.908386 228.823746,286.557800 
	C224.338135,287.229950 219.850464,287.888672 215.367294,288.576843 
	C201.941269,290.637756 188.574127,291.884644 175.333710,285.882812 
	C174.956161,285.935669 175.006348,285.957245 175.006348,285.957245 
z"/>
<path fill="#020202" opacity="1.000000" stroke="none" 
	d="
M363.491394,213.172470 
	C363.941528,198.719147 364.281372,184.742203 364.988953,170.783905 
	C365.064026,169.302979 367.302643,166.689423 368.524658,166.696945 
	C384.647369,166.796234 400.913971,166.044189 416.854187,167.942856 
	C440.332031,170.739334 449.143860,187.324844 446.501312,209.473587 
	C443.223816,236.944809 428.418060,251.401016 398.669617,256.821045 
	C394.233765,257.629211 393.065247,259.273102 393.057068,263.611664 
	C393.031372,277.251923 392.441559,290.890228 392.212372,304.531647 
	C392.153778,308.018616 390.846161,310.118530 387.441803,311.135590 
	C380.118713,313.323395 372.837524,315.653381 365.556519,317.979462 
	C361.768494,319.189636 360.347137,317.806396 360.469513,313.941620 
	C361.248657,289.326874 361.944244,264.709473 362.674164,240.093140 
	C362.935455,231.279877 363.215576,222.467194 363.491394,213.172470 
M413.340454,224.704208 
	C413.962708,217.319275 415.359192,209.899765 415.031403,202.557236 
	C414.498657,190.623535 408.311890,186.176437 394.555969,188.215820 
	C394.555969,204.458160 394.555969,220.762375 394.555969,237.059647 
	C403.622833,237.325317 409.319885,233.697723 413.340454,224.704208 
z"/>
<path fill="#020202" opacity="1.000000" stroke="none" 
	d="
M497.542053,164.529572 
	C502.370728,164.487503 502.229828,168.136734 502.779358,170.858444 
	C506.232056,187.960281 509.412811,205.117386 512.916443,222.208450 
	C516.619751,240.273209 520.410095,258.324432 524.547913,276.292847 
	C525.644348,281.053925 524.628418,283.115479 519.821655,283.674561 
	C514.206970,284.327637 508.639587,285.378204 503.031097,286.095306 
	C496.770691,286.895782 496.447235,286.630432 495.380920,280.223999 
	C494.406494,274.369537 493.575775,268.491211 492.612762,262.170746 
	C485.820526,263.249207 479.433136,264.070679 473.162811,265.431641 
	C471.995148,265.685028 470.801849,268.000061 470.471069,269.545715 
	C469.149872,275.719360 468.452637,282.038940 466.883972,288.139832 
	C466.395691,290.038971 464.156433,292.271973 462.249847,292.878876 
	C455.932648,294.889740 449.422211,296.318604 442.946320,297.797577 
	C437.687378,298.998596 436.597656,297.861115 437.753662,292.575470 
	C445.316559,257.995178 452.918488,223.423416 460.478485,188.842468 
	C461.933197,182.188156 463.368988,175.525757 464.594269,168.826981 
	C465.153198,165.771347 466.656525,164.763382 469.679565,164.776260 
	C478.830170,164.815247 487.981750,164.611496 497.542053,164.529572 
M476.870178,230.178131 
	C476.158234,234.328766 475.446320,238.479385 474.624756,243.268967 
	C478.937622,242.720856 482.341248,242.186096 485.765472,241.884644 
	C488.637634,241.631805 489.748810,240.620850 489.291199,237.448929 
	C487.327942,223.841125 485.632507,210.194763 483.792725,196.568771 
	C483.694702,195.842896 483.169678,195.174667 482.418274,193.573746 
	C480.507263,206.153976 478.748291,217.733398 476.870178,230.178131 
z"/>
<path fill="#020202" opacity="1.000000" stroke="none" 
	d="
M567.084900,163.828018 
	C573.465149,164.608765 579.601562,164.615356 585.211182,166.337708 
	C595.775269,169.581314 603.366394,181.293365 602.724609,192.196106 
	C602.641052,193.615753 601.315063,195.761002 600.089050,196.180389 
	C593.817810,198.325699 587.401245,200.052994 581.012695,201.844925 
	C578.580688,202.527039 577.287354,201.622391 577.128174,198.922073 
	C576.923523,195.451294 576.781799,191.914398 575.986145,188.554398 
	C574.527100,182.392242 568.474548,180.369125 563.714172,184.585861 
	C561.452271,186.589478 559.382812,189.405334 558.479248,192.251083 
	C552.450134,211.240356 552.479065,230.524109 556.604248,249.876678 
	C557.011169,251.785721 557.906372,253.678391 558.944153,255.349319 
	C562.481567,261.044922 569.554138,261.840393 574.243958,257.063446 
	C575.493347,255.790848 576.461792,254.161575 577.270691,252.551132 
	C581.089478,244.948349 581.054443,244.928314 589.036133,247.782608 
	C590.752197,248.396301 592.472107,249.001709 594.170654,249.661392 
	C601.433594,252.482086 603.254944,257.859497 598.031555,263.753845 
	C594.255493,268.014954 589.562073,271.798096 584.603394,274.601532 
	C576.171875,279.368439 566.701111,280.703247 557.070801,279.873077 
	C545.176758,278.847717 536.504333,272.809113 531.171692,262.142181 
	C523.271912,246.339981 522.575378,229.407455 524.629517,212.410370 
	C525.611694,204.284119 527.883362,196.045135 531.106995,188.514694 
	C537.662903,173.199966 549.566162,164.572723 567.084900,163.828018 
z"/>
<path fill="#010101" opacity="1.000000" stroke="none" 
	d="
M645.000000,164.998947 
	C651.831848,164.998993 658.167725,165.132706 664.494263,164.948288 
	C668.213074,164.839905 669.575623,166.428177 669.524109,169.987381 
	C669.269653,187.555466 671.596802,184.194214 655.556763,184.470444 
	C650.568115,184.556366 645.571411,184.330719 640.581848,184.151932 
	C637.320923,184.035095 635.693848,185.050552 635.922241,188.743759 
	C636.199097,193.220123 635.986938,197.736740 635.799316,202.228119 
	C635.683350,205.005066 636.685608,206.124863 639.535522,206.038315 
	C645.694702,205.851288 651.863342,205.978897 658.022583,205.792908 
	C661.075806,205.700714 662.206787,206.889999 662.044312,209.915771 
	C661.856995,213.404938 661.795044,216.927322 662.055786,220.407013 
	C662.347778,224.305176 660.524780,225.314575 657.017944,225.212769 
	C651.357300,225.048386 645.684631,225.292969 640.024536,225.119614 
	C636.937378,225.025070 635.410278,225.841431 635.447632,229.262863 
	C635.522034,236.086487 635.471130,242.924072 635.095642,249.735138 
	C634.878845,253.668289 636.620728,254.633820 640.074280,254.527328 
	C648.392761,254.270844 656.723083,254.319778 665.034302,253.935760 
	C669.372253,253.735336 671.322937,255.281601 670.841614,259.660797 
	C670.732788,260.651398 670.745178,261.654663 670.667114,262.649384 
	C669.781555,273.931610 669.774597,273.741364 658.583252,274.047699 
	C643.616455,274.457489 628.655884,275.136780 613.698364,275.825043 
	C607.074341,276.129852 606.407593,275.607727 606.500916,268.623322 
	C606.941040,235.672928 607.461182,202.723236 607.737793,169.771500 
	C607.772461,165.638321 609.270508,164.688843 613.014282,164.770691 
	C623.506165,165.000076 634.004333,164.943008 645.000000,164.998947 
z"/>
<path fill="#FFC107" opacity="1.000000" stroke="none" 
	d="
M208.517456,98.722717 
	C249.913452,98.010262 282.732666,114.042549 306.603546,147.306641 
	C333.216614,184.392014 333.793030,234.782120 308.646118,272.202789 
	C307.637238,273.704071 306.301453,274.985657 304.824677,276.092529 
	C334.006714,223.780914 318.387115,170.123413 288.352966,140.042633 
	C257.211212,108.852570 207.932190,99.759125 168.197784,118.111359 
	C142.761230,129.859818 124.429092,148.715393 113.261543,174.322861 
	C102.184219,199.723419 101.211479,225.853821 109.170067,252.410828 
	C99.121208,237.210342 94.692757,198.054214 108.770668,167.366821 
	C128.221603,124.967216 161.693634,102.425629 208.517456,98.722717 
z"/>
<path fill="#363636" opacity="1.000000" stroke="none" 
	d="
M174.950775,285.908630 
	C176.209229,287.164215 177.291199,289.263245 178.767456,289.592041 
	C186.281952,291.265778 193.898468,292.481354 202.042419,293.959564 
	C200.797623,296.475525 199.578659,300.288757 197.298111,303.297272 
	C190.281174,312.553986 183.009094,321.628998 175.558853,330.542847 
	C163.292664,345.218689 149.809586,358.876556 141.422150,376.544403 
	C137.166153,385.509491 136.843445,394.831146 136.386398,404.222107 
	C136.281555,406.376068 138.751434,408.638519 139.979218,410.882324 
	C140.477264,411.792572 140.822525,412.786438 141.237305,413.742249 
	C140.220383,413.999359 139.152985,414.597656 138.195053,414.455994 
	C133.435776,413.752106 130.005997,411.512939 128.291138,406.602936 
	C126.337799,401.010193 123.924538,395.561188 121.435730,390.177002 
	C118.739487,384.343964 119.445518,383.088837 125.512886,380.857758 
	C127.770065,380.027740 130.323563,377.695892 131.073608,375.483368 
	C133.973465,366.929138 138.235886,358.892487 138.494751,349.332275 
	C138.683075,342.376556 143.873154,337.123505 149.202744,332.528168 
	C151.603729,330.457947 153.856323,327.798462 155.158112,324.942322 
	C160.994049,312.138245 166.463715,299.167236 172.163025,286.031769 
	C172.712631,286.202942 173.615860,286.484222 174.762711,286.361359 
	C175.006348,285.957245 174.956161,285.935669 174.950775,285.908630 
z"/>
<path fill="#FFC004" opacity="1.000000" stroke="none" 
	d="
M737.207703,346.924652 
	C740.498779,336.836853 740.293579,328.156097 730.380920,322.148163 
	C729.310852,321.499573 728.611267,320.239685 727.142151,318.593719 
	C732.405334,317.732269 737.092651,317.203552 741.640869,316.100677 
	C743.406128,315.672607 745.413147,314.283813 746.343079,312.747406 
	C748.808350,308.674469 750.746094,304.282288 753.243713,299.322113 
	C755.253479,303.285919 757.293884,306.473663 758.527405,309.947906 
	C760.189270,314.628815 763.215088,316.653503 768.039490,316.903748 
	C771.616516,317.089294 775.164124,317.841705 779.563477,319.565491 
	C776.185669,322.629181 772.503906,325.432190 769.558960,328.867035 
	C768.097168,330.571960 767.306885,333.470459 767.417053,335.771332 
	C767.620544,340.020569 768.711121,344.227356 769.628723,349.603516 
	C765.232910,347.385193 761.614868,345.910095 758.383362,343.833466 
	C754.903870,341.597565 751.908875,341.297638 748.368530,343.710175 
	C745.507324,345.659943 742.253906,347.054443 739.091431,348.515503 
	C738.707031,348.693085 737.805969,347.752533 737.207703,346.924652 
z"/>
<path fill="#FFC004" opacity="1.000000" stroke="none" 
	d="
M606.528503,327.658142 
	C602.920654,330.245728 602.503418,333.229858 603.534729,337.066132 
	C604.546143,340.828003 604.765320,344.802826 605.473450,349.651642 
	C600.791748,347.194672 596.927307,345.336884 593.240845,343.175415 
	C590.525269,341.583282 588.165405,341.469849 585.393921,343.121796 
	C581.585815,345.391602 577.553162,347.284790 572.895569,349.715759 
	C573.786621,344.142883 574.774719,339.451355 575.173157,334.710205 
	C575.324524,332.910400 574.617859,330.552704 573.434082,329.221069 
	C570.368591,325.772705 566.820312,322.753601 562.458679,318.606628 
	C567.747803,317.817871 571.712158,317.020050 575.715088,316.688934 
	C579.569092,316.370209 581.976685,314.831909 583.417603,311.064117 
	C584.881714,307.235870 587.079285,303.688080 589.323242,299.298279 
	C591.159485,303.022247 593.087219,305.935455 594.068665,309.138580 
	C595.878967,315.046722 600.046204,316.769135 605.602234,317.051117 
	C608.669922,317.206818 611.709106,317.924072 616.508484,318.653900 
	C612.601868,322.170258 609.696899,324.785004 606.528503,327.658142 
z"/>
<path fill="#FFC004" opacity="1.000000" stroke="none" 
	d="
M654.721497,328.332489 
	C651.452026,325.253601 648.433899,322.430542 644.361694,318.621521 
	C649.749084,317.817902 653.714905,317.017639 657.719360,316.688843 
	C661.578125,316.372131 663.977783,314.822632 665.419250,311.059723 
	C666.885193,307.232635 669.080017,303.684723 671.306152,299.328827 
	C673.143188,303.029266 675.084656,305.933044 676.064270,309.131409 
	C677.874390,315.040985 682.039673,316.764557 687.594543,317.049988 
	C690.663574,317.207672 693.704041,317.922363 698.485535,318.648376 
	C694.478760,322.276703 691.555908,325.127777 688.412903,327.710938 
	C685.395142,330.191071 684.325867,332.886322 685.441772,336.837280 
	C686.508240,340.613525 686.769348,344.617218 687.557983,349.622467 
	C682.766785,347.139954 679.005981,344.779236 674.933167,343.248871 
	C672.784851,342.441620 669.835449,342.405182 667.700195,343.214478 
	C663.566345,344.781342 659.752625,347.192749 654.934448,349.709503 
	C655.767212,344.393829 656.214783,339.864136 657.255249,335.475006 
	C657.967590,332.470428 657.443115,330.321106 654.721497,328.332489 
z"/>
<path fill="#FFC005" opacity="1.000000" stroke="none" 
	d="
M330.227875,117.091309 
	C329.731934,126.104218 324.801971,132.063751 317.488190,132.966187 
	C309.692902,133.928070 303.052124,129.832413 300.719421,122.624184 
	C298.441193,115.584267 301.310425,108.204399 307.716614,104.626846 
	C317.520538,99.151794 328.693054,105.132904 330.227875,117.091309 
M314.631989,111.161957 
	C308.687500,113.285645 306.397949,118.198494 310.062714,121.897537 
	C311.613220,123.462578 315.218048,124.781876 316.871429,124.015945 
	C319.085266,122.990379 321.432007,119.956779 321.700073,117.559341 
	C322.110535,113.888229 319.145386,111.708496 314.631989,111.161957 
z"/>
<path fill="#FFC414" opacity="1.000000" stroke="none" 
	d="
M295.336121,203.894455 
	C298.383667,199.310364 303.126343,200.580811 307.341431,200.138474 
	C307.809753,200.089355 308.725769,201.118378 308.837036,201.752213 
	C308.948273,202.386017 308.489075,203.348206 307.967377,203.823013 
	C306.251984,205.384171 297.541107,205.600815 295.336121,203.894455 
z"/>
<path fill="#FFC413" opacity="1.000000" stroke="none" 
	d="
M296.135498,229.088989 
	C299.840149,229.229034 303.288879,229.475067 306.676666,230.068909 
	C307.534637,230.219315 308.514801,231.370880 308.821106,232.272278 
	C308.980377,232.741119 307.706787,234.341614 307.226501,234.280624 
	C303.491455,233.806396 299.776306,233.118942 296.110992,232.258682 
	C295.813141,232.188782 295.931885,230.344025 296.135498,229.088989 
z"/>
<path fill="#FFC415" opacity="1.000000" stroke="none" 
	d="
M117.753891,204.380829 
	C116.342667,203.293381 115.312515,202.314545 114.282372,201.335709 
	C115.501976,200.825729 116.740456,199.852142 117.937317,199.900879 
	C120.549652,200.007217 123.183571,200.471237 125.716606,201.138550 
	C126.560402,201.360840 127.123566,202.648346 127.815002,203.448883 
	C126.864067,204.154053 125.914192,205.445709 124.961990,205.447418 
	C122.686905,205.451538 120.410713,204.847763 117.753891,204.380829 
z"/>
<path fill="#FFC518" opacity="1.000000" stroke="none" 
	d="
M120.747559,228.963928 
	C122.292572,228.718430 123.529549,228.133881 124.542061,228.400803 
	C125.736504,228.715714 126.736725,229.767303 127.821159,230.499496 
	C126.945290,231.321564 126.195816,232.575821 125.167488,232.876556 
	C122.968834,233.519531 120.625175,233.929459 118.342285,233.923386 
	C116.964943,233.919739 115.590141,232.955536 114.214203,232.422943 
	C115.275848,231.426270 116.228104,230.255112 117.438736,229.496063 
	C118.207138,229.014297 119.359833,229.145416 120.747559,228.963928 
z"/>
<path fill="#FFC412" opacity="1.000000" stroke="none" 
	d="
M197.729645,120.097763 
	C198.796219,123.659843 199.632828,127.002335 200.121857,130.394943 
	C200.236984,131.193695 199.337173,132.352066 198.592102,132.966446 
	C198.248734,133.249588 196.549591,132.725632 196.490906,132.388885 
	C195.822250,128.551788 195.307953,124.684296 194.941025,120.807076 
	C194.919739,120.582268 196.524643,120.203568 197.729645,120.097763 
z"/>
<path fill="#FFC61D" opacity="1.000000" stroke="none" 
	d="
M293.713226,172.710693 
	C295.892426,172.548279 297.736542,172.552353 299.580688,172.556427 
	C298.512115,173.931549 297.665863,175.606247 296.318665,176.605927 
	C294.634888,177.855377 292.607605,178.777664 290.591125,179.383698 
	C289.637085,179.670425 288.363281,178.893341 287.234375,178.598267 
	C287.672760,177.506058 287.816010,176.048706 288.615143,175.402908 
	C289.987183,174.294144 291.768616,173.692017 293.713226,172.710693 
z"/>
<path fill="#FFC516" opacity="1.000000" stroke="none" 
	d="
M271.713409,157.173676 
	C271.543518,154.057465 277.138794,146.863144 279.493622,147.048950 
	C280.355896,147.117004 281.809906,148.837509 281.747742,149.715973 
	C281.576111,152.140427 274.731354,157.235184 271.713409,157.173676 
z"/>
<path fill="#FFC518" opacity="1.000000" stroke="none" 
	d="
M299.443726,260.422668 
	C298.380341,261.451935 296.947205,262.949615 296.093140,262.671173 
	C293.456177,261.811493 290.933807,260.437378 288.595306,258.912781 
	C287.765015,258.371429 287.590607,256.824066 287.116821,255.735931 
	C288.246674,255.445908 289.655396,254.579926 290.456879,254.968018 
	C293.523407,256.452911 296.394653,258.341064 299.443726,260.422668 
z"/>
<path fill="#FFC413" opacity="1.000000" stroke="none" 
	d="
M126.832062,171.155548 
	C129.681656,172.559235 132.285919,173.680862 134.605103,175.229446 
	C135.401627,175.761322 135.485611,177.360245 135.895126,178.471710 
	C134.763214,178.698349 133.456985,179.399399 132.533112,179.059906 
	C130.070358,178.154907 127.699181,176.923248 125.446213,175.564972 
	C124.605652,175.058228 124.193817,173.840317 123.586487,172.946686 
	C124.549309,172.311417 125.512131,171.676147 126.832062,171.155548 
z"/>
<path fill="#FFC413" opacity="1.000000" stroke="none" 
	d="
M223.960999,124.886658 
	C224.194962,123.492607 224.126114,122.329666 224.655273,121.600975 
	C225.219193,120.824448 226.455536,119.919319 227.200851,120.066994 
	C227.928528,120.211174 228.957306,121.655495 228.896362,122.456146 
	C228.671219,125.413223 228.200424,128.378036 227.477188,131.253220 
	C227.282562,132.026932 225.867630,132.493713 225.012878,133.101379 
	C224.365158,132.135101 223.250412,131.202942 223.176727,130.194702 
	C223.059647,128.592789 223.637466,126.940079 223.960999,124.886658 
z"/>
<path fill="#FFC311" opacity="1.000000" stroke="none" 
	d="
M255.111298,129.085541 
	C256.083679,130.249786 257.459167,131.732803 257.150970,132.650055 
	C256.263611,135.290878 254.858749,137.811310 253.305939,140.145355 
	C252.779633,140.936432 251.204666,141.029846 250.108887,141.442062 
	C249.798569,140.427353 248.926086,139.123840 249.273727,138.447113 
	C250.914658,135.252731 252.889572,132.229919 255.111298,129.085541 
z"/>
<path fill="#FFC20B" opacity="1.000000" stroke="none" 
	d="
M149.474304,157.485809 
	C146.778839,155.100006 144.315811,152.930252 142.121704,150.516098 
	C141.577682,149.917511 141.470703,148.131912 141.948502,147.606689 
	C142.472946,147.030212 144.317093,146.789536 144.870941,147.254501 
	C147.249054,149.251053 149.544312,151.421951 151.430557,153.868027 
	C151.832062,154.388702 150.395676,156.326645 149.474304,157.485809 
z"/>
<path fill="#FFC30F" opacity="1.000000" stroke="none" 
	d="
M173.966644,140.439865 
	C172.488693,140.500717 170.552994,140.660492 169.945755,139.838669 
	C168.387375,137.729599 167.227142,135.255661 166.310013,132.778641 
	C165.949570,131.805099 166.660049,130.435043 166.882843,129.245560 
	C167.975235,129.688736 169.646194,129.832825 170.057343,130.628174 
	C171.629333,133.669083 172.796005,136.919495 173.966644,140.439865 
z"/>
<path fill="#FBFBFB" opacity="1.000000" stroke="none" 
	d="
M731.956116,211.746948 
	C731.879456,201.655426 731.879456,192.036240 731.879456,182.511246 
	C739.831116,181.471130 745.399780,183.558411 747.719055,188.127319 
	C750.666382,193.933197 749.636475,205.600662 745.597534,209.482559 
	C741.733154,213.196716 737.166199,214.341599 731.956116,211.746948 
z"/>
<path fill="#F4F4F4" opacity="1.000000" stroke="none" 
	d="
M822.535889,232.365463 
	C824.413940,218.653030 826.194153,205.373230 827.974304,192.093430 
	C828.285645,192.096085 828.596924,192.098724 828.908264,192.101379 
	C831.457520,207.951004 834.006836,223.800629 836.696899,240.525436 
	C831.693542,239.886093 827.203369,239.312317 822.070923,238.656464 
	C822.200378,236.590057 822.319153,234.694077 822.535889,232.365463 
z"/>
<path fill="#F6F6F6" opacity="1.000000" stroke="none" 
	d="
M413.221558,225.074799 
	C409.319885,233.697723 403.622833,237.325317 394.555969,237.059647 
	C394.555969,220.762375 394.555969,204.458160 394.555969,188.215820 
	C408.311890,186.176437 414.498657,190.623535 415.031403,202.557236 
	C415.359192,209.899765 413.962708,217.319275 413.221558,225.074799 
z"/>
<path fill="#F4F4F4" opacity="1.000000" stroke="none" 
	d="
M476.929749,229.745483 
	C478.748291,217.733398 480.507263,206.153976 482.418274,193.573746 
	C483.169678,195.174667 483.694702,195.842896 483.792725,196.568771 
	C485.632507,210.194763 487.327942,223.841125 489.291199,237.448929 
	C489.748810,240.620850 488.637634,241.631805 485.765472,241.884644 
	C482.341248,242.186096 478.937622,242.720856 474.624756,243.268967 
	C475.446320,238.479385 476.158234,234.328766 476.929749,229.745483 
z"/>
<path fill="#FFFCF3" opacity="1.000000" stroke="none" 
	d="
M315.014709,111.159256 
	C319.145386,111.708496 322.110535,113.888229 321.700073,117.559341 
	C321.432007,119.956779 319.085266,122.990379 316.871429,124.015945 
	C315.218048,124.781876 311.613220,123.462578 310.062714,121.897537 
	C306.397949,118.198494 308.687500,113.285645 315.014709,111.159256 
z"/>
</svg>